<?xml version="1.0" encoding="UTF-8"?>
<svg id="Layer_1" xmlns="http://www.w3.org/2000/svg" version="1.1" viewBox="-36 -5 596 441">
  <!-- Generator: Adobe Illustrator 29.8.6, SVG Export Plug-In . SVG Version: 2.1.1 Build 1)  -->
  <defs>
    <style>
      .st0 {
        fill: #febe13;
      }

      .st1 {
        fill: #fff;
      }

      .st2 {
        fill: #fdbe17;
      }
    </style>
  </defs>
  <path class="st0" d="M135.56,418.56v-18.46l-23.02,4.25v35.81c.77-.4,1.53-.81,2.28-1.25,8.51-4.92,15.66-11.94,20.74-20.35Z"/>
  <path class="st0" d="M83.51,403.18v43.47c.74.03,1.49.04,2.23.04,3.35,0,6.63-.28,9.83-.83,1.34-.23,2.67-.5,3.98-.82,2.39-.58,4.72-1.31,6.98-2.18v-43.94l-23.02,4.25Z"/>
  <path class="st0" d="M54.48,423.31v14.26c2.11,1.34,4.3,2.56,6.58,3.63,4.77,2.24,9.89,3.85,15.26,4.72.39.06.78.12,1.18.18v-27.04l-23.02,4.25Z"/>
  <path class="st0" d="M119.39,353.14s4.18-4.84,4.09-5.26c-.1-.45-3.77.74-5.61,1.37-5.14-4.38-13.59-3.26-18.19,1.48-2.98,3.07-4.12,7.08-6.8,10.25-1.26,1.49-12.56,4.27-22.62,17.62-3.3,4.38-8.17,7.32-12.73,10.42-5.56,3.77-25.2,11.1-25.2,11.1l1.32,5.31,13.88-7.14s5.21-2.31,5.06-2.19c-1.74,1.46-3.78,2.62-5.82,3.62-3.98,1.96-12.25,6.84-12.25,6.84l5.14,3.49s5.37-6.37,8.27-7.97c3.14-1.73,6.5-4.28,9.88-5.36.92-.29,1.86-.47,2.79-.73,0,0,0,0,0,0,4.53-1.2,9.44-2.09,10.66-2.42l3.63.88s.04.01.12.03c1.39.32,3.36.74,4.76.57.33-.04.69-.4,1.01-.2.11.07.64,1.11.82,1.36.71.99,1.54,1.39,2.69,1.75l5.57,5.85,2.76-.42s-3.86-3.91-4.46-4.55c-.34-.36-1.58-1.6-1.65-1.98-.09-.52.13-.79.16-1.21.02-.21-.26-1.32.16-1.22.2.05.6.62.9.79.81.47,1.22.21,2.04.3.68.08.94.78,1.52,1.06.43.21,1.01.23,1.47.38,1.28.43,1.71,1.15,2.62,1.98.28.26,4.57,3.52,4.57,3.52l2.63-.67s-5-4.11-6.68-5.39c-.59-.45-.32-.55-1.23-1.27-.41-.32.04-.56.45-.73,1.32-.54,2.95-.88,4.34-1.39,10.05-3.7,20.3-12.2,18.82-24.06-.33-2.64-1.28-6-.39-8.56.13-.38.77-1.83,1.01-2.06.34-.32.88-1.6,1.31-1.76.72-.27,3.79-.72,3.79-.72l-4.6-2.73Z"/>
  <path class="st2" d="M197.31,428.84c-2.54,1.32-8.16,2.63-15.27,2.63-18.78,0-30.19-11.76-30.19-29.75,0-19.48,13.52-31.24,31.59-31.24,7.11,0,12.2,1.49,14.39,2.63l-2.37,8.6c-2.81-1.23-6.67-2.28-11.58-2.28-12.02,0-20.71,7.55-20.71,21.76,0,12.99,7.63,21.32,20.62,21.32,4.39,0,8.95-.88,11.76-2.19l1.75,8.51Z"/>
  <path class="st2" d="M224.96,430.59l-.7-4.74h-.26c-2.63,3.33-7.11,5.7-12.64,5.7-8.6,0-13.43-6.23-13.43-12.72,0-10.79,9.57-16.24,25.36-16.15v-.7c0-2.81-1.14-7.46-8.69-7.46-4.21,0-8.6,1.32-11.5,3.16l-2.11-7.02c3.16-1.93,8.69-3.77,15.44-3.77,13.69,0,17.64,8.69,17.64,17.99v15.44c0,3.86.18,7.63.61,10.27h-9.74ZM223.56,409.71c-7.63-.18-14.92,1.49-14.92,7.99,0,4.21,2.72,6.14,6.14,6.14,4.3,0,7.46-2.81,8.42-5.88.26-.79.35-1.67.35-2.37v-5.88Z"/>
  <path class="st2" d="M241.12,400.58c0-4.92-.09-9.04-.35-12.72h9.48l.53,6.4h.26c1.84-3.33,6.49-7.37,13.6-7.37,7.46,0,15.18,4.83,15.18,18.34v25.36h-10.79v-24.13c0-6.14-2.28-10.79-8.16-10.79-4.3,0-7.28,3.07-8.42,6.32-.35.96-.44,2.28-.44,3.51v25.1h-10.88v-30.01Z"/>
  <path class="st2" d="M310.98,430.59l-.7-4.74h-.26c-2.63,3.33-7.11,5.7-12.64,5.7-8.6,0-13.43-6.23-13.43-12.72,0-10.79,9.57-16.24,25.36-16.15v-.7c0-2.81-1.14-7.46-8.69-7.46-4.21,0-8.6,1.32-11.5,3.16l-2.11-7.02c3.16-1.93,8.69-3.77,15.44-3.77,13.69,0,17.64,8.69,17.64,17.99v15.44c0,3.86.18,7.63.61,10.27h-9.74ZM309.58,409.71c-7.63-.18-14.92,1.49-14.92,7.99,0,4.21,2.72,6.14,6.14,6.14,4.3,0,7.46-2.81,8.42-5.88.26-.79.35-1.67.35-2.37v-5.88Z"/>
  <path class="st2" d="M327.13,401.63c0-5.79-.09-9.92-.35-13.78h9.39l.35,8.16h.35c2.11-6.05,7.11-9.12,11.67-9.12,1.05,0,1.67.09,2.54.26v10.18c-.88-.18-1.84-.35-3.16-.35-5.18,0-8.69,3.33-9.65,8.16-.18.97-.35,2.1-.35,3.33v22.11h-10.79v-28.96Z"/>
  <path class="st2" d="M362.68,387.86l7.72,22.9c.88,2.63,1.76,5.88,2.37,8.34h.26c.7-2.46,1.49-5.62,2.28-8.42l6.67-22.82h11.58l-10.71,29.13c-5.88,15.97-9.83,23.08-14.92,27.47-4.21,3.77-8.6,5.18-11.32,5.53l-2.46-9.13c1.84-.44,4.12-1.4,6.32-2.98,2.02-1.32,4.39-3.86,5.88-6.76.44-.79.7-1.4.7-1.93,0-.44-.09-1.05-.61-2.1l-15.62-39.23h11.85Z"/>
  <path class="st1" d="M409.64,372.23c4.74-.79,10.79-1.23,17.2-1.23,11.06,0,18.69,2.28,24.13,6.84,5.7,4.65,9.21,11.67,9.21,21.76s-3.6,18.43-9.21,23.52c-5.88,5.35-15.27,8.07-26.76,8.07-6.32,0-11.06-.35-14.57-.79v-58.18ZM420.43,422.34c1.49.26,3.77.26,5.97.26,14.04.09,22.38-7.63,22.38-22.64.09-13.07-7.46-20.53-20.97-20.53-3.42,0-5.88.26-7.37.61v42.3Z"/>
  <path class="st1" d="M488.81,430.59l-.7-4.74h-.26c-2.63,3.33-7.11,5.7-12.64,5.7-8.6,0-13.43-6.23-13.43-12.72,0-10.79,9.57-16.24,25.36-16.15v-.7c0-2.81-1.14-7.46-8.69-7.46-4.21,0-8.6,1.32-11.5,3.16l-2.11-7.02c3.16-1.93,8.69-3.77,15.44-3.77,13.69,0,17.64,8.69,17.64,17.99v15.44c0,3.86.18,7.63.61,10.27h-9.74ZM487.4,409.71c-7.63-.18-14.92,1.49-14.92,7.99,0,4.21,2.72,6.14,6.14,6.14,4.3,0,7.46-2.81,8.42-5.88.26-.79.35-1.67.35-2.37v-5.88Z"/>
  <path class="st1" d="M516.81,375.66v12.2h10.27v8.07h-10.27v18.87c0,5.18,1.4,7.9,5.53,7.9,1.84,0,3.25-.26,4.21-.53l.18,8.25c-1.58.61-4.39,1.05-7.81,1.05-3.95,0-7.28-1.32-9.3-3.51-2.28-2.46-3.34-6.32-3.34-11.93v-20.1h-6.14v-8.07h6.14v-9.65l10.53-2.55Z"/>
  <path class="st1" d="M554.9,430.59l-.7-4.74h-.26c-2.63,3.33-7.11,5.7-12.64,5.7-8.6,0-13.43-6.23-13.43-12.72,0-10.79,9.57-16.24,25.36-16.15v-.7c0-2.81-1.14-7.46-8.69-7.46-4.21,0-8.6,1.32-11.5,3.16l-2.11-7.02c3.16-1.93,8.69-3.77,15.44-3.77,13.69,0,17.64,8.69,17.64,17.99v15.44c0,3.86.18,7.63.61,10.27h-9.74ZM553.5,409.71c-7.63-.18-14.92,1.49-14.92,7.99,0,4.21,2.72,6.14,6.14,6.14,4.3,0,7.46-2.81,8.42-5.88.26-.79.35-1.67.35-2.37v-5.88Z"/>
</svg>