<svg xmlns="http://www.w3.org/2000/svg" viewBox="30 340 120 115">
  <path fill="#febe13" d="M135.56,418.56v-18.46l-23.02,4.25v35.81c.77-.4,1.53-.81,2.28-1.25,8.51-4.92,15.66-11.94,20.74-20.35Z"/>
  <path fill="#febe13" d="M83.51,403.18v43.47c.74.03,1.49.04,2.23.04,3.35,0,6.63-.28,9.83-.83,1.34-.23,2.67-.5,3.98-.82,2.39-.58,4.72-1.31,6.98-2.18v-43.94l-23.02,4.25Z"/>
  <path fill="#febe13" d="M54.48,423.31v14.26c2.11,1.34,4.3,2.56,6.58,3.63,4.77,2.24,9.89,3.85,15.26,4.72.39.06.78.12,1.18.18v-27.04l-23.02,4.25Z"/>
  <path fill="#febe13" d="M119.39,353.14s4.18-4.84,4.09-5.26c-.1-.45-3.77.74-5.61,1.37-5.14-4.38-13.59-3.26-18.19,1.48-2.98,3.07-4.12,7.08-6.8,10.25-1.26,1.49-12.56,4.27-22.62,17.62-3.3,4.38-8.17,7.32-12.73,10.42-5.56,3.77-25.2,11.1-25.2,11.1l1.32,5.31,13.88-7.14s5.21-2.31,5.06-2.19c-1.74,1.46-3.78,2.62-5.82,3.62-3.98,1.96-12.25,6.84-12.25,6.84l5.14,3.49s5.37-6.37,8.27-7.97c3.14-1.73,6.5-4.28,9.88-5.36.92-.29,1.86-.47,2.79-.73,0,0,0,0,0,0,4.53-1.2,9.44-2.09,10.66-2.42l3.63.88s.04.01.12.03c1.39.32,3.36.74,4.76.57.33-.04.69-.4,1.01-.2.11.07.64,1.11.82,1.36.71.99,1.54,1.39,2.69,1.75l5.57,5.85,2.76-.42s-3.86-3.91-4.46-4.55c-.34-.36-1.58-1.6-1.65-1.98-.09-.52.13-.79.16-1.21.02-.21-.26-1.32.16-1.22.2.05.6.62.9.79.81.47,1.22.21,2.04.3.68.08.94.78,1.52,1.06.43.21,1.01.23,1.47.38,1.28.43,1.71,1.15,2.62,1.98.28.26,4.57,3.52,4.57,3.52l2.63-.67s-5-4.11-6.68-5.39c-.59-.45-.32-.55-1.23-1.27-.41-.32.04-.56.45-.73,1.32-.54,2.95-.88,4.34-1.39,10.05-3.7,20.3-12.2,18.82-24.06-.33-2.64-1.28-6-.39-8.56.13-.38.77-1.83,1.01-2.06.34-.32.88-1.6,1.31-1.76.72-.27,3.79-.72,3.79-.72l-4.6-2.73Z"/>
</svg>
